<?xml version="1.0" encoding="utf-8"?>
<!-- Generator: Adobe Illustrator 22.1.0, SVG Export Plug-In . SVG Version: 6.00 Build 0)  -->
<svg version="1.1" id="Calque_1" xmlns="http://www.w3.org/2000/svg" xmlns:xlink="http://www.w3.org/1999/xlink" x="0px" y="0px"
	 viewBox="0 0 171 165" style="enable-background:new 0 0 171 165;" xml:space="preserve">
<style type="text/css">
	.st0{fill:#FCBD0C;}
</style>
<g id="Groupe_3" transform="translate(-14.638 13.425) rotate(59)">
	<path id="Tracé_8" class="st0" d="M105.3-41c3.5-2.9,8.6-2.5,11.6,0.9c2.9,3.5,2.5,8.7-0.9,11.6c-3.5,2.9-8.7,2.5-11.6-0.9
		C101.4-32.9,101.9-38.1,105.3-41z"/>
	<path id="Tracé_9" class="st0" d="M122.1-55.3c3.5-2.9,8.6-2.5,11.6,0.9c2.9,3.5,2.5,8.6-0.9,11.6c-3.5,2.9-8.6,2.5-11.6-0.9
		C118.2-47.2,118.6-52.3,122.1-55.3z"/>
	<path id="Tracé_10" class="st0" d="M126-33.2c3.5-2.9,8.7-2.5,11.6,0.9c2.9,3.5,2.5,8.6-0.9,11.6c-3.5,2.9-8.6,2.5-11.6-0.9
		C122.1-25.1,122.5-30.3,126-33.2z"/>
	<path id="Tracé_11" class="st0" d="M139.1-69.7c3.5-2.9,8.6-2.5,11.6,0.9c2.9,3.5,2.5,8.6-0.9,11.6c-3.5,2.9-8.7,2.5-11.6-1
		C135.3-61.6,135.7-66.8,139.1-69.7z"/>
	<path id="Tracé_12" class="st0" d="M143-47.7c3.5-2.9,8.7-2.5,11.6,0.9c2.9,3.5,2.5,8.6-0.9,11.6c-3.5,2.9-8.7,2.5-11.6-0.9
		C139.1-39.5,139.5-44.7,143-47.7z"/>
	<path id="Tracé_13" class="st0" d="M155.1-83.3c3.5-2.9,8.6-2.5,11.6,0.9c2.9,3.5,2.5,8.6-0.9,11.6c-3.5,2.9-8.7,2.5-11.6-0.9
		C151.3-75.2,151.7-80.4,155.1-83.3z"/>
	<path id="Tracé_14" class="st0" d="M159-61.2c3.5-2.9,8.6-2.5,11.6,0.9c2.9,3.5,2.5,8.6-0.9,11.6c-3.5,2.9-8.6,2.5-11.6-0.9
		C155.1-53.1,155.6-58.3,159-61.2z"/>
	<path id="Tracé_15" class="st0" d="M113.5-60.2c-3.5,2.9-8.6,2.5-11.6-0.9c-2.9-3.5-2.5-8.6,0.9-11.6c3.5-2.9,8.6-2.5,11.6,0.9
		C117.4-68.3,117-63.1,113.5-60.2z"/>
	<path id="Tracé_16" class="st0" d="M96.7-46c-3.5,2.9-8.6,2.5-11.6-0.9c-2.9-3.5-2.5-8.6,0.9-11.6c3.5-2.9,8.6-2.5,11.6,0.9
		C100.6-54.1,100.2-48.9,96.7-46z"/>
	<path id="Tracé_17" class="st0" d="M92.9-68c-3.5,2.9-8.6,2.5-11.6-1c-2.9-3.5-2.5-8.6,0.9-11.6c3.5-2.9,8.6-2.5,11.6,0.9
		C96.8-76.2,96.3-71,92.9-68z"/>
	<path id="Tracé_18" class="st0" d="M79.7-31.5c-3.5,2.9-8.6,2.5-11.6-0.9c-2.9-3.5-2.5-8.6,0.9-11.6c3.5-2.9,8.6-2.5,11.6,0.9
		C83.6-39.6,83.2-34.5,79.7-31.5z"/>
	<path id="Tracé_19" class="st0" d="M75.8-53.6c-3.5,2.9-8.7,2.5-11.6-0.9c-2.9-3.5-2.5-8.6,0.9-11.6c3.5-2.9,8.6-2.5,11.6,0.9
		C79.7-61.7,79.3-56.5,75.8-53.6z"/>
	<path id="Tracé_20" class="st0" d="M63.7-17.9c-3.5,2.9-8.6,2.5-11.6-0.9c-2.9-3.5-2.5-8.6,0.9-11.6c3.5-2.9,8.6-2.5,11.6,0.9
		C67.6-26.1,67.2-20.9,63.7-17.9z"/>
	<path id="Tracé_21" class="st0" d="M59.8-40c-3.5,2.9-8.6,2.5-11.6-0.9c-2.9-3.5-2.5-8.7,0.9-11.6c3.5-2.9,8.6-2.5,11.6,0.9
		C63.7-48.1,63.3-42.9,59.8-40z"/>
	<path id="Tracé_22" class="st0" d="M105.3-41c3.5-2.9,8.6-2.5,11.6,0.9c2.9,3.5,2.5,8.7-0.9,11.6c-3.5,2.9-8.7,2.5-11.6-0.9
		C101.4-32.9,101.9-38.1,105.3-41z"/>
	<path id="Tracé_23" class="st0" d="M122.1-55.3c3.5-2.9,8.6-2.5,11.6,0.9c2.9,3.5,2.5,8.6-0.9,11.6c-3.5,2.9-8.6,2.5-11.6-0.9
		C118.2-47.2,118.6-52.3,122.1-55.3z"/>
	<path id="Tracé_24" class="st0" d="M126-33.2c3.5-2.9,8.7-2.5,11.6,0.9c2.9,3.5,2.5,8.6-0.9,11.6c-3.5,2.9-8.6,2.5-11.6-0.9
		C122.1-25.1,122.5-30.3,126-33.2z"/>
	<path id="Tracé_25" class="st0" d="M139.1-69.7c3.5-2.9,8.6-2.5,11.6,0.9c2.9,3.5,2.5,8.6-0.9,11.6c-3.5,2.9-8.7,2.5-11.6-1
		C135.3-61.6,135.7-66.8,139.1-69.7z"/>
	<path id="Tracé_26" class="st0" d="M143-47.7c3.5-2.9,8.7-2.5,11.6,0.9c2.9,3.5,2.5,8.6-0.9,11.6c-3.5,2.9-8.7,2.5-11.6-0.9
		C139.1-39.5,139.5-44.7,143-47.7z"/>
	<path id="Tracé_27" class="st0" d="M155.1-83.3c3.5-2.9,8.6-2.5,11.6,0.9c2.9,3.5,2.5,8.6-0.9,11.6c-3.5,2.9-8.7,2.5-11.6-0.9
		C151.3-75.2,151.7-80.4,155.1-83.3z"/>
	<path id="Tracé_28" class="st0" d="M159-61.2c3.5-2.9,8.6-2.5,11.6,0.9c2.9,3.5,2.5,8.6-0.9,11.6c-3.5,2.9-8.6,2.5-11.6-0.9
		C155.1-53.1,155.6-58.3,159-61.2z"/>
	<path id="Tracé_29" class="st0" d="M113.5-60.2c-3.5,2.9-8.6,2.5-11.6-0.9c-2.9-3.5-2.5-8.6,0.9-11.6c3.5-2.9,8.6-2.5,11.6,0.9
		C117.4-68.3,117-63.1,113.5-60.2z"/>
	<path id="Tracé_30" class="st0" d="M96.7-46c-3.5,2.9-8.6,2.5-11.6-0.9c-2.9-3.5-2.5-8.6,0.9-11.6c3.5-2.9,8.6-2.5,11.6,0.9
		C100.6-54.1,100.2-48.9,96.7-46z"/>
	<path id="Tracé_31" class="st0" d="M92.9-68c-3.5,2.9-8.6,2.5-11.6-1c-2.9-3.5-2.5-8.6,0.9-11.6c3.5-2.9,8.6-2.5,11.6,0.9
		C96.8-76.2,96.3-71,92.9-68z"/>
	<path id="Tracé_32" class="st0" d="M79.7-31.5c-3.5,2.9-8.6,2.5-11.6-0.9c-2.9-3.5-2.5-8.6,0.9-11.6c3.5-2.9,8.6-2.5,11.6,0.9
		C83.6-39.6,83.2-34.5,79.7-31.5z"/>
	<path id="Tracé_33" class="st0" d="M75.8-53.6c-3.5,2.9-8.7,2.5-11.6-0.9c-2.9-3.5-2.5-8.6,0.9-11.6c3.5-2.9,8.6-2.5,11.6,0.9
		C79.7-61.7,79.3-56.5,75.8-53.6z"/>
	<path id="Tracé_34" class="st0" d="M63.7-17.9c-3.5,2.9-8.6,2.5-11.6-0.9c-2.9-3.5-2.5-8.6,0.9-11.6c3.5-2.9,8.6-2.5,11.6,0.9
		C67.6-26.1,67.2-20.9,63.7-17.9z"/>
	<path id="Tracé_35" class="st0" d="M59.8-40c-3.5,2.9-8.6,2.5-11.6-0.9c-2.9-3.5-2.5-8.7,0.9-11.6c3.5-2.9,8.6-2.5,11.6,0.9
		C63.7-48.1,63.3-42.9,59.8-40z"/>
</g>
</svg>
